<?xml version="1.0" encoding="UTF-8" standalone="no"?>
<!-- Created with Inkscape (http://www.inkscape.org/) -->

<svg
   xmlns:dc="http://purl.org/dc/elements/1.1/"
   xmlns:cc="http://creativecommons.org/ns#"
   xmlns:rdf="http://www.w3.org/1999/02/22-rdf-syntax-ns#"
   xmlns:svg="http://www.w3.org/2000/svg"
   xmlns="http://www.w3.org/2000/svg"
   xmlns:sodipodi="http://sodipodi.sourceforge.net/DTD/sodipodi-0.dtd"
   xmlns:inkscape="http://www.inkscape.org/namespaces/inkscape"
   width="511.99997"
   height="511.99997"
   viewBox="0 0 135.46666 135.46666"
   version="1.1"
   id="svg1136"
   inkscape:version="0.92.2 5c3e80d, 2017-08-06"
   sodipodi:docname="icon.svg">
  <defs
     id="defs1130" />
  <sodipodi:namedview
     id="base"
     pagecolor="#ffffff"
     bordercolor="#666666"
     borderopacity="1.0"
     inkscape:pageopacity="0.0"
     inkscape:pageshadow="2"
     inkscape:zoom="0.061871843"
     inkscape:cx="769.41369"
     inkscape:cy="5223.9864"
     inkscape:document-units="mm"
     inkscape:current-layer="layer1"
     showgrid="false"
     fit-margin-top="0"
     fit-margin-left="0"
     fit-margin-right="0"
     fit-margin-bottom="0"
     inkscape:window-width="1680"
     inkscape:window-height="951"
     inkscape:window-x="0"
     inkscape:window-y="1"
     inkscape:window-maximized="1"
     units="px"
     inkscape:pagecheckerboard="false" />
  <metadata
     id="metadata1133">
    <rdf:RDF>
      <cc:Work
         rdf:about="">
        <dc:format>image/svg+xml</dc:format>
        <dc:type
           rdf:resource="http://purl.org/dc/dcmitype/StillImage" />
        <dc:title></dc:title>
      </cc:Work>
    </rdf:RDF>
  </metadata>
  <g
     inkscape:label="Layer 1"
     inkscape:groupmode="layer"
     id="layer1"
     transform="translate(116.87023,-97.730957)">
    <rect
       style="fill:#b2d1fb;fill-opacity:1;stroke-width:0.16037248"
       id="rect4526"
       width="135.46666"
       height="135.46666"
       x="-116.87023"
       y="-233.19762"
       ry="20.410715"
       inkscape:export-filename="/Users/marius/Development/rock-paper-scissors-pwa/src/img/icon/icon-192.png"
       inkscape:export-xdpi="36.000004"
       inkscape:export-ydpi="36.000004"
       transform="scale(1,-1)" />
    <path
       id="path1611"
       d="m -49.115897,163.60919 c -2.448165,0 -4.434427,1.98441 -4.434414,4.43444 0.210617,13.34954 -1.504039,26.21865 -5.118105,39.08775 -0.504424,1.79596 0.39725,5.6336 4.271841,5.6336 1.936368,0 3.715695,-1.2786 4.2663,-3.23714 2.499912,-8.85226 5.735214,-23.1718 5.446983,-41.48421 0.003,-2.44816 -1.982562,-4.43443 -4.432811,-4.43422 z m -0.158915,-15.10112 c -11.318893,-0.0129 -19.21774,8.69705 -19.060701,18.67826 0.138589,8.85779 -0.692877,17.72112 -2.47033,26.33873 -0.497034,2.39828 1.047617,4.74669 3.444066,5.24003 2.41123,0.49334 4.743005,-1.0458 5.240032,-3.44408 1.910523,-9.25506 2.802935,-18.76879 2.655113,-28.27327 -0.0757,-4.79474 3.680596,-9.69848 10.06066,-9.67079 5.785088,0.0868 10.559508,4.68205 10.646339,10.24912 0.142288,8.87812 -0.519191,17.79873 -1.960381,26.52349 -0.400942,2.41308 1.236098,4.69682 3.651028,5.09592 3.689813,0.6153 4.953641,-2.78999 5.095919,-3.65287 1.529875,-9.24397 2.228284,-18.70042 2.082321,-28.10513 -0.162597,-10.31007 -8.857769,-18.8242 -19.384066,-18.97941 z m -20.451993,-3.6547 c -1.903111,-1.541 -4.68758,-1.25643 -6.237771,0.64298 -4.733766,5.82021 -7.27806,13.1703 -7.159789,20.69406 0.109023,6.94359 -0.456375,13.90752 -1.68324,20.70331 -0.43236,2.41124 1.165883,4.71713 3.57712,5.15319 3.715698,0.64669 5.001683,-2.73641 5.153195,-3.57712 1.328467,-7.36117 1.940054,-14.90341 1.82181,-22.41795 -0.08681,-5.52088 1.699878,-10.69439 5.173517,-14.96069 1.54281,-1.89942 1.254567,-4.69128 -0.644842,-6.23778 z m 20.226588,-11.51663 c -2.847286,-0.0757 -5.703789,0.26608 -8.458694,0.9183 -2.381645,0.56539 -3.856104,2.95261 -3.29441,5.33796 0.565388,2.38167 2.956295,3.84874 5.337949,3.29443 2.041696,-0.48224 4.15175,-0.69659 6.282136,-0.68179 13.937066,0.20877 25.448135,11.36323 25.66063,24.86613 0.109035,6.99902 -0.236515,14.0627 -1.031005,20.99522 -0.27716,2.43341 1.4689,4.63398 3.900436,4.91116 3.089348,0.36029 4.71347,-2.19505 4.911175,-3.90048 a 171.66094,171.66094 0 0 0 1.088289,-22.14447 c -0.288261,-18.2459 -15.718264,-33.31929 -34.396506,-33.59646 z m 46.5745705,22.44012 c -0.5284337,-2.3872 -2.8657461,-3.91709 -5.2862243,-3.37572 -2.3909022,0.52844 -3.9023162,2.89348 -3.3738602,5.28623 0.87026,3.9559 0.907211,6.91219 0.8684,11.38173 -0.0203,2.4519 1.9493243,4.45108 4.3975394,4.47136 l 0.036904,1e-5 c 2.433404,1e-5 4.4141325,-1.9604 4.4344264,-4.39751 0.033397,-4.09816 0.073901,-8.15014 -1.0771923,-13.36615 z m -7.4128895,-16.7622 c -8.998246,-12.82106 -23.722428,-20.61274 -39.388949,-20.8474 -12.89497,-0.1552 -24.82177,4.59889 -33.692517,13.47331 -8.567592,8.57891 -13.185074,19.97346 -12.992909,32.09612 l -0.0222,3.96698 c -0.072,2.44819 1.853207,4.49172 4.301391,4.56193 0.04251,0.005 0.08866,0.005 0.13302,0.005 2.387201,1e-5 4.358686,-1.9031 4.428871,-4.30513 l 0.0296,-4.36791 c -0.153359,-9.70033 3.54016,-18.82053 10.398759,-25.68282 7.16179,-7.16886 16.876763,-11.02512 27.286611,-10.87546 12.832161,0.19031 24.893849,6.57036 32.264253,17.07077 1.406083,2.00657 4.168374,2.4851 6.174969,1.08272 2.0028887,-1.40793 2.4869711,-4.17392 1.079038,-6.1768 z"
       inkscape:connector-curvature="0"
       style="stroke-width:0.18476841;fill:#008000" />
    <rect
       style="fill:#b2d1fb;fill-opacity:1;stroke:none;stroke-width:23.42650604;stroke-miterlimit:4;stroke-dasharray:none;stroke-opacity:1"
       id="rect5345"
       width="1242"
       height="2436"
       x="-239.9751"
       y="-2501.519"
       inkscape:export-xdpi="25.4"
       inkscape:export-ydpi="25.4" />
    <path
       id="path1611-9"
       d="m 381.14172,-1293.7516 c -13.50419,0 -24.46023,10.9471 -24.46021,24.4616 1.16171,73.6358 -8.29646,144.6222 -28.2317,215.6077 -2.78229,9.907 2.19131,31.0745 23.56362,31.0745 10.68096,0 20.49577,-7.0515 23.53292,-17.8543 13.78952,-48.83 31.63566,-127.8173 30.04566,-228.8279 0.003,-13.5047 -10.93584,-24.4616 -24.45141,-24.4595 z m -0.87663,-83.2963 c -62.43512,-0.074 -106.00533,47.9718 -105.13909,103.0291 0.76447,48.859 -3.82196,97.7493 -13.62633,145.2843 -2.74169,13.2296 5.77857,26.1829 18.9974,28.9041 13.30039,2.7216 26.16255,-5.7688 28.90421,-18.997 10.53852,-51.0512 15.46099,-103.529 14.64558,-155.9563 -0.41792,-26.448 20.3023,-53.4973 55.49486,-53.3444 31.91064,0.4798 58.24638,25.8251 58.72534,56.5351 0.78482,48.9713 -2.86393,98.177 -10.81346,146.3042 -2.21167,13.3095 6.81826,25.9062 20.13898,28.1085 20.35313,3.394 27.32445,-15.39 28.10929,-20.1493 8.43873,-50.9899 12.2913,-103.152 11.48601,-155.0288 -0.89676,-56.8709 -48.8596,-103.836 -106.92279,-104.6895 z m -112.81364,-20.16 c -10.49738,-8.5008 -25.8566,-6.9308 -34.40753,3.5466 -26.11141,32.1038 -40.14581,72.6469 -39.49351,114.1483 0.60136,38.3008 -2.51733,76.7143 -9.28477,114.2011 -2.38485,13.2988 6.43104,26.0182 19.7315,28.4239 20.49577,3.5672 27.58933,-15.0947 28.42511,-19.7303 7.32771,-40.6053 10.70127,-82.2085 10.04911,-123.658 -0.47874,-30.4538 9.37651,-58.9905 28.53725,-82.524 8.51015,-10.4772 6.92015,-25.8771 -3.55716,-34.4076 z m 111.57033,-63.5259 c -15.70569,-0.4197 -31.46219,1.4674 -46.65828,5.0646 -13.13722,3.1195 -21.27033,16.2876 -18.17199,29.444 3.11866,13.1381 16.3068,21.2303 29.44426,18.1733 11.26183,-2.6605 22.90098,-3.843 34.65227,-3.7603 76.87711,1.1504 140.37235,62.6792 141.54431,137.161 0.60161,38.6058 -1.30444,77.5702 -5.68691,115.8098 -1.52881,13.4229 8.10247,25.5598 21.51493,27.0904 17.04086,1.9874 25.99952,-12.1079 27.09008,-21.5152 a 946.88433,946.88445 0 0 0 6.00295,-122.1504 c -1.58996,-100.6435 -86.70216,-183.7875 -189.73162,-185.3172 z m 256.90604,123.7794 c -2.91484,-13.1665 -15.80751,-21.6064 -29.15893,-18.6204 -13.18812,2.915 -21.52511,15.9601 -18.61015,29.1594 4.80027,21.8197 5.00409,38.1274 4.79004,62.7812 -0.11182,13.5248 10.75258,24.5525 24.25693,24.6638 h 0.20228 c 13.42269,0 24.34838,-10.8129 24.46036,-24.2564 0.18344,-22.6058 0.40788,-44.9558 -5.94179,-73.7276 z m -40.88957,-92.4603 c -49.63443,-70.7207 -130.85319,-113.6994 -217.27013,-114.9952 -71.12879,-0.8556 -136.9173,25.3689 -185.84843,74.3202 -47.25888,47.3211 -72.72904,110.1743 -71.66904,177.0419 l -0.12303,21.8829 c -0.39754,13.5036 10.22238,24.776 23.72661,25.1624 0.23416,0.055 0.4893,0.055 0.73363,0.055 13.16797,10e-5 24.04262,-10.4981 24.42984,-23.7466 l 0.1629,-24.0941 c -0.84603,-53.5066 19.52765,-103.8146 57.3598,-141.666 39.5045,-39.5441 93.09243,-60.8154 150.51336,-59.9904 70.78233,1.0492 137.31469,36.2425 177.97012,94.1626 7.75605,11.0691 22.99281,13.7084 34.06115,5.973 11.04798,-7.7653 13.71827,-23.0234 5.95203,-34.0719 z"
       inkscape:connector-curvature="0"
       style="fill:#008000;stroke-width:1.0191853" />
  </g>
</svg>
