<?xml version="1.0" encoding="UTF-8" standalone="no"?>
<!-- Created with Inkscape (http://www.inkscape.org/) -->

<svg
   xmlns:dc="http://purl.org/dc/elements/1.1/"
   xmlns:cc="http://creativecommons.org/ns#"
   xmlns:rdf="http://www.w3.org/1999/02/22-rdf-syntax-ns#"
   xmlns:svg="http://www.w3.org/2000/svg"
   xmlns="http://www.w3.org/2000/svg"
   xmlns:sodipodi="http://sodipodi.sourceforge.net/DTD/sodipodi-0.dtd"
   xmlns:inkscape="http://www.inkscape.org/namespaces/inkscape"
   width="511.99997"
   height="511.99997"
   viewBox="0 0 135.46666 135.46666"
   version="1.1"
   id="svg1136"
   inkscape:version="0.92.2 5c3e80d, 2017-08-06"
   sodipodi:docname="icon.svg">
  <defs
     id="defs1130">
    <path
       d="M0 0h24v24H0V0z"
       id="a" />
  </defs>
  <sodipodi:namedview
     id="base"
     pagecolor="#ffffff"
     bordercolor="#666666"
     borderopacity="1.0"
     inkscape:pageopacity="0"
     inkscape:pageshadow="2"
     inkscape:zoom="0.49497475"
     inkscape:cx="126.49149"
     inkscape:cy="857.9468"
     inkscape:document-units="mm"
     inkscape:current-layer="layer1"
     showgrid="false"
     fit-margin-top="0"
     fit-margin-left="0"
     fit-margin-right="0"
     fit-margin-bottom="0"
     inkscape:window-width="1680"
     inkscape:window-height="951"
     inkscape:window-x="0"
     inkscape:window-y="1"
     inkscape:window-maximized="1"
     units="px"
     inkscape:pagecheckerboard="true" />
  <metadata
     id="metadata1133">
    <rdf:RDF>
      <cc:Work
         rdf:about="">
        <dc:format>image/svg+xml</dc:format>
        <dc:type
           rdf:resource="http://purl.org/dc/dcmitype/StillImage" />
        <dc:title></dc:title>
      </cc:Work>
    </rdf:RDF>
  </metadata>
  <g
     inkscape:label="Layer 1"
     inkscape:groupmode="layer"
     id="layer1"
     transform="translate(116.87023,-97.730957)">
    <rect
       style="fill:#b2d1fb;fill-opacity:1;stroke-width:0.16037248"
       id="rect4526"
       width="135.46666"
       height="135.46666"
       x="-68.489281"
       y="-129.05476"
       ry="20.410715"
       inkscape:export-filename="/Users/marius/Development/react-native-reaction-tester/assets/images/android-app-store/icon.png"
       inkscape:export-xdpi="96.000008"
       inkscape:export-ydpi="96.000008" />
    <rect
       style="fill:#b2d1fb;fill-opacity:1;stroke:none;stroke-width:23.42650604;stroke-miterlimit:4;stroke-dasharray:none;stroke-opacity:1"
       id="rect5345"
       width="1242"
       height="2436"
       x="-220.43645"
       y="-3131.5112"
       inkscape:export-xdpi="25.4"
       inkscape:export-ydpi="25.4" />
    <rect
       style="fill:#b2d1fb;fill-opacity:1;stroke-width:0.84709555"
       id="rect4526-7"
       width="1024"
       height="500"
       x="-1210.4487"
       y="95.240227"
       ry="32.679001"
       inkscape:export-filename="/Users/marius/Development/react-native-reaction-tester/assets/images/android-app-store/feature-graphic.png"
       inkscape:export-xdpi="25.4"
       inkscape:export-ydpi="25.4"
       inkscape:transform-center-x="-891.42861"
       inkscape:transform-center-y="-96.261165" />
    <text
       xml:space="preserve"
       style="font-style:normal;font-weight:normal;font-size:50.79999924px;line-height:1.25;font-family:sans-serif;letter-spacing:0px;word-spacing:0px;fill:#000000;fill-opacity:1;stroke:none;stroke-width:0.26458332"
       x="-1032.4739"
       y="235.52068"
       id="text856"><tspan
         sodipodi:role="line"
         id="tspan854"
         x="-1032.4739"
         y="235.52068"
         style="font-style:normal;font-variant:normal;font-weight:800;font-stretch:normal;font-size:91.72222137px;font-family:Avenir;-inkscape-font-specification:'Avenir Ultra-Bold';fill:#333333;stroke-width:0.26458332">Reactive Tester</tspan></text>
    <text
       xml:space="preserve"
       style="font-style:normal;font-weight:normal;font-size:50.79999924px;line-height:1.25;font-family:sans-serif;letter-spacing:0px;word-spacing:0px;fill:#000000;fill-opacity:1;stroke:none;stroke-width:0.26458332"
       x="-1121.2045"
       y="305.31595"
       id="text856-0"><tspan
         sodipodi:role="line"
         id="tspan854-9"
         x="-1121.2045"
         y="305.31595"
         style="font-style:normal;font-variant:normal;font-weight:800;font-stretch:normal;font-size:63.5px;font-family:Avenir;-inkscape-font-specification:'Avenir Ultra-Bold';fill:#4d4d4d;stroke-width:0.26458332">Test your reaction in 5 steps</tspan></text>
    <path
       id="path1971"
       clip-path="url(#b)"
       d="m -24.15758,-64.469455 -8.508695,-14.73749 c -3.139585,-5.43792 -1.274307,-12.39931 4.163575,-15.53887 5.437863,-3.13955 12.399339,-1.27429 15.538924,4.16363 l 8.5086951,14.73749 c 2.92513,-5.94454 2.921385,-13.14042 -0.62769,-19.28759 -5.6648901,-9.811885 -18.1582041,-13.159495 -27.9700691,-7.494615 -9.811836,5.664875 -13.159521,18.158285 -7.494631,27.970165 3.549075,6.14718 9.778933,9.7484 16.389891,10.18728 z m 49.30805,-4.14187 -23.0315649,1.42337 c -0.828837,0.11113 -1.629408,0.36285 -2.377939,0.79501 l -2.994958,1.72914 -13.6503551,-23.64311 c -1.888295,-3.27062 -6.052703,-4.38652 -9.323233,-2.49828 -3.270833,1.88842 -4.386682,6.05287 -2.498387,9.3235 l 24.4341701,42.32122 -15.1540271,4.96629 c -0.339862,0.13745 -0.660033,0.22179 -1.015898,0.42725 -1.221039,0.70497 -2.029097,1.85448 -2.362399,3.09751 l -1.292791,4.94968 30.7047531,8.22745 c 1.675928,0.4502 3.5625789,0.255 5.1784289,-0.67791 l 26.755816,-15.44748 c 2.955534,-1.70638 3.989735,-5.19317 2.76222,-8.32001 l -9.034126,-22.47276 c -0.157016,-0.27677 -0.288667,-0.56825 -0.425282,-0.80488 -1.41052,-2.44309 -4.136481,-3.70654 -6.725387,-3.36777 z"
       inkscape:connector-curvature="0"
       style="fill:#008000;fill-opacity:1;stroke-width:4.55011845" />
    <path
       id="path1971-7"
       clip-path="url(#b)"
       d="m -734.75231,446.66366 -13.19979,-22.86272 c -4.87053,-8.43597 -1.97687,-19.23537 6.45908,-24.10587 8.43591,-4.87049 19.23543,-1.97683 24.10599,6.45916 l 13.19976,22.8627 c 4.53784,-9.22194 4.53203,-20.38511 -0.97375,-29.92138 -8.7881,-15.22148 -28.16932,-20.41472 -43.39077,-11.62661 -15.22139,8.78807 -20.41473,28.16943 -11.62662,43.39089 5.50576,9.53628 15.17032,15.12299 25.4261,15.80383 z m 76.49296,-6.42543 -35.72951,2.20812 c -1.28578,0.17239 -2.52774,0.56292 -3.68896,1.23332 l -4.64617,2.68249 -21.17617,-36.67822 c -2.92938,-5.0738 -9.38975,-6.80495 -14.46341,-3.87568 -5.07412,2.92957 -6.80519,9.39001 -3.87583,14.46383 l 37.90545,65.65408 -23.50888,7.70437 c -0.52723,0.21324 -1.02393,0.34406 -1.57599,0.66279 -1.89425,1.09362 -3.14779,2.87691 -3.66487,4.80526 l -2.00554,7.67856 47.63316,12.7635 c 2.59992,0.69841 5.52671,0.3956 8.03343,-1.05166 l 41.50706,-23.96412 c 4.585,-2.64715 6.18939,-8.0563 4.2851,-12.90706 l -14.01487,-34.86263 c -0.24357,-0.42937 -0.44783,-0.88156 -0.65977,-1.24863 -2.18817,-3.79004 -6.41701,-5.75006 -10.4333,-5.22453 z"
       inkscape:connector-curvature="0"
       style="fill:#008000;fill-opacity:1;stroke-width:7.05872679" />
    <path
       id="path1971-7-9"
       clip-path="url(#b)"
       d="m 271.47979,-1930.8756 -46.93406,-81.2924 c -17.31803,-29.9953 -7.02913,-68.3945 22.96635,-85.712 29.99529,-17.3181 68.39489,-7.0297 85.71297,22.9656 l 46.93401,81.293 c 16.13514,-32.7904 16.11443,-72.4834 -3.46234,-106.3911 -31.24756,-54.1227 -100.16084,-72.588 -154.28329,-41.3399 -54.12222,31.2473 -72.58813,100.1609 -41.34043,154.2831 19.5766,33.9084 53.94061,53.7727 90.40679,56.1937 z m 271.98399,-22.8469 -127.04251,7.8513 c -4.57176,0.613 -8.98776,2.0018 -13.11674,4.3851 l -16.5202,9.5385 -75.29557,-130.416 c -10.41587,-18.0411 -33.38687,-24.1961 -51.42711,-13.7805 -18.04197,10.4161 -24.19702,33.3886 -13.78114,51.4287 l 134.77926,233.4445 -83.58988,27.394 c -1.87468,0.7583 -3.64073,1.2235 -5.60364,2.3567 -6.73532,3.8886 -11.19252,10.2295 -13.03105,17.086 l -7.13114,27.3025 169.36799,45.3827 c 9.24448,2.4834 19.65119,1.4067 28.56422,-3.7393 l 147.58556,-85.2085 c 16.30276,-9.4125 22.00744,-28.6456 15.23637,-45.8932 l -49.83223,-123.96 c -0.86609,-1.5268 -1.59237,-3.1353 -2.34603,-4.4399 -7.78033,-13.4761 -22.8167,-20.4451 -37.09736,-18.5767 z"
       inkscape:connector-curvature="0"
       style="fill:#008000;fill-opacity:1;stroke-width:25.09852219" />
  </g>
</svg>
